<svg width="24" height="24" viewBox="0 0 24 24" fill="none" xmlns="http://www.w3.org/2000/svg">
<path d="M10.1323 1.7052C15.4903 0.5232 20.2505 4.59162 20.2505 9.75012C20.2505 11.5515 19.68 13.2644 18.6001 14.7013C17.4047 16.2912 13.2514 21.1956 12.228 22.4005C12.108 22.5415 11.891 22.5415 11.771 22.4005C10.748 21.196 6.58386 16.2858 5.38818 14.6866C4.06518 12.9151 3.51124 10.7277 3.84424 8.47473C4.33029 5.17936 6.88046 2.42375 10.1323 1.7052ZM12.0005 3.00012C8.27899 3.00012 5.25049 6.02862 5.25049 9.75012C5.25053 11.2186 5.71384 12.6153 6.59131 13.7882C7.64451 15.1969 10.7196 18.8427 12.0005 20.3546C13.2802 18.8424 16.3454 15.2039 17.3999 13.7999C18.2834 12.624 18.7505 11.2246 18.7505 9.75012C18.7505 6.02876 15.7218 3.00035 12.0005 3.00012ZM12.0005 6.00012C14.0673 6.00035 15.7505 7.68326 15.7505 9.75012C15.7504 11.8169 14.0672 13.4999 12.0005 13.5001C9.93355 13.5001 8.25059 11.817 8.25049 9.75012C8.25049 7.68312 9.93349 6.00012 12.0005 6.00012ZM12.0005 7.50012C10.76 7.50012 9.75049 8.50962 9.75049 9.75012C9.75059 10.9905 10.76 12.0001 12.0005 12.0001C13.2407 11.9999 14.2504 10.9904 14.2505 9.75012C14.2505 8.50976 13.2408 7.50035 12.0005 7.50012Z" fill="black"/>
</svg>
